<svg width="233" height="233" viewBox="0 0 233 233" fill="none" xmlns="http://www.w3.org/2000/svg">
<mask id="path-1-inside-1_2328_11260" fill="white">
<path d="M30.0601 94.3981C25.4803 112.421 26.661 131.426 33.4364 148.744C40.2118 166.062 52.2415 180.822 67.836 190.952C83.4306 201.083 101.807 206.074 120.383 205.224C138.96 204.375 156.804 197.728 171.409 186.218C186.014 174.707 196.647 158.91 201.814 141.047C206.981 123.183 206.423 104.15 200.218 86.6195C194.013 69.0893 182.472 53.9432 167.218 43.3082C151.963 32.6732 133.76 27.0837 115.166 27.3246L115.427 47.48C129.81 47.2936 143.89 51.6172 155.69 59.8435C167.49 68.0698 176.416 79.7856 181.216 93.3455C186.016 106.905 186.448 121.628 182.451 135.446C178.454 149.264 170.229 161.483 158.932 170.386C147.634 179.29 133.832 184.431 119.463 185.088C105.093 185.745 90.8792 181.885 78.8166 174.049C66.7539 166.213 57.4487 154.795 52.2079 141.4C46.967 128.004 46.0537 113.304 49.5963 99.3624L30.0601 94.3981Z"/>
</mask>
<path d="M30.0601 94.3981C25.4803 112.421 26.661 131.426 33.4364 148.744C40.2118 166.062 52.2415 180.822 67.836 190.952C83.4306 201.083 101.807 206.074 120.383 205.224C138.96 204.375 156.804 197.728 171.409 186.218C186.014 174.707 196.647 158.91 201.814 141.047C206.981 123.183 206.423 104.15 200.218 86.6195C194.013 69.0893 182.472 53.9432 167.218 43.3082C151.963 32.6732 133.76 27.0837 115.166 27.3246L115.427 47.48C129.81 47.2936 143.89 51.6172 155.69 59.8435C167.49 68.0698 176.416 79.7856 181.216 93.3455C186.016 106.905 186.448 121.628 182.451 135.446C178.454 149.264 170.229 161.483 158.932 170.386C147.634 179.29 133.832 184.431 119.463 185.088C105.093 185.745 90.8792 181.885 78.8166 174.049C66.7539 166.213 57.4487 154.795 52.2079 141.4C46.967 128.004 46.0537 113.304 49.5963 99.3624L30.0601 94.3981Z" stroke="#034F7A" stroke-width="36" mask="url(#path-1-inside-1_2328_11260)"/>
<path d="M85.2889 49V46.9L90.6889 41.8C91.1156 41.4133 91.4289 41.0667 91.6289 40.76C91.8289 40.4533 91.9622 40.1733 92.0289 39.92C92.1089 39.6667 92.1489 39.4333 92.1489 39.22C92.1489 38.66 91.9556 38.2333 91.5689 37.94C91.1956 37.6333 90.6422 37.48 89.9089 37.48C89.3222 37.48 88.7756 37.5933 88.2689 37.82C87.7756 38.0467 87.3556 38.4 87.0089 38.88L84.6489 37.36C85.1822 36.56 85.9289 35.9267 86.8889 35.46C87.8489 34.9933 88.9556 34.76 90.2089 34.76C91.2489 34.76 92.1556 34.9333 92.9289 35.28C93.7156 35.6133 94.3222 36.0867 94.7489 36.7C95.1889 37.3133 95.4089 38.0467 95.4089 38.9C95.4089 39.3533 95.3489 39.8067 95.2289 40.26C95.1222 40.7 94.8956 41.1667 94.5489 41.66C94.2156 42.1533 93.7222 42.7067 93.0689 43.32L88.5889 47.54L87.9689 46.36H95.8689V49H85.2889ZM103.206 49.24C102.059 49.24 101.032 48.96 100.126 48.4C99.2191 47.8267 98.5058 47 97.9858 45.92C97.4658 44.84 97.2058 43.5333 97.2058 42C97.2058 40.4667 97.4658 39.16 97.9858 38.08C98.5058 37 99.2191 36.18 100.126 35.62C101.032 35.0467 102.059 34.76 103.206 34.76C104.366 34.76 105.392 35.0467 106.286 35.62C107.192 36.18 107.906 37 108.426 38.08C108.946 39.16 109.206 40.4667 109.206 42C109.206 43.5333 108.946 44.84 108.426 45.92C107.906 47 107.192 47.8267 106.286 48.4C105.392 48.96 104.366 49.24 103.206 49.24ZM103.206 46.5C103.752 46.5 104.226 46.3467 104.626 46.04C105.039 45.7333 105.359 45.2467 105.586 44.58C105.826 43.9133 105.946 43.0533 105.946 42C105.946 40.9467 105.826 40.0867 105.586 39.42C105.359 38.7533 105.039 38.2667 104.626 37.96C104.226 37.6533 103.752 37.5 103.206 37.5C102.672 37.5 102.199 37.6533 101.786 37.96C101.386 38.2667 101.066 38.7533 100.826 39.42C100.599 40.0867 100.486 40.9467 100.486 42C100.486 43.0533 100.599 43.9133 100.826 44.58C101.066 45.2467 101.386 45.7333 101.786 46.04C102.199 46.3467 102.672 46.5 103.206 46.5ZM46.1334 73L40.0934 59H43.5934L48.8734 71.4H46.8134L52.1734 59H55.3934L49.3334 73H46.1334ZM60.8816 73.16C59.6549 73.16 58.5749 72.92 57.6416 72.44C56.7216 71.96 56.0082 71.3067 55.5016 70.48C54.9949 69.64 54.7416 68.6867 54.7416 67.62C54.7416 66.54 54.9882 65.5867 55.4816 64.76C55.9882 63.92 56.6749 63.2667 57.5416 62.8C58.4082 62.32 59.3882 62.08 60.4816 62.08C61.5349 62.08 62.4816 62.3067 63.3216 62.76C64.1749 63.2 64.8482 63.84 65.3416 64.68C65.8349 65.5067 66.0816 66.5 66.0816 67.66C66.0816 67.78 66.0749 67.92 66.0616 68.08C66.0482 68.2267 66.0349 68.3667 66.0216 68.5H57.2816V66.68H64.3816L63.1816 67.22C63.1816 66.66 63.0682 66.1733 62.8416 65.76C62.6149 65.3467 62.3016 65.0267 61.9016 64.8C61.5016 64.56 61.0349 64.44 60.5016 64.44C59.9682 64.44 59.4949 64.56 59.0816 64.8C58.6816 65.0267 58.3682 65.3533 58.1416 65.78C57.9149 66.1933 57.8016 66.6867 57.8016 67.26V67.74C57.8016 68.3267 57.9282 68.8467 58.1816 69.3C58.4482 69.74 58.8149 70.08 59.2816 70.32C59.7616 70.5467 60.3216 70.66 60.9616 70.66C61.5349 70.66 62.0349 70.5733 62.4616 70.4C62.9016 70.2267 63.3016 69.9667 63.6616 69.62L65.3216 71.42C64.8282 71.98 64.2082 72.4133 63.4616 72.72C62.7149 73.0133 61.8549 73.16 60.8816 73.16ZM72.5588 73.16C71.2921 73.16 70.3054 72.84 69.5988 72.2C68.8921 71.5467 68.5388 70.58 68.5388 69.3V59.86H71.6588V69.26C71.6588 69.7133 71.7788 70.0667 72.0188 70.32C72.2588 70.56 72.5854 70.68 72.9988 70.68C73.4921 70.68 73.9121 70.5467 74.2588 70.28L75.0988 72.48C74.7788 72.7067 74.3921 72.88 73.9388 73C73.4988 73.1067 73.0388 73.16 72.5588 73.16ZM66.8788 64.88V62.48H74.3388V64.88H66.8788ZM81.0158 73.16C79.7491 73.16 78.7624 72.84 78.0558 72.2C77.3491 71.5467 76.9958 70.58 76.9958 69.3V59.86H80.1158V69.26C80.1158 69.7133 80.2358 70.0667 80.4758 70.32C80.7158 70.56 81.0424 70.68 81.4558 70.68C81.9491 70.68 82.3691 70.5467 82.7158 70.28L83.5558 72.48C83.2358 72.7067 82.8491 72.88 82.3958 73C81.9558 73.1067 81.4958 73.16 81.0158 73.16ZM75.3358 64.88V62.48H82.7958V64.88H75.3358ZM90.3152 73.16C89.0885 73.16 88.0085 72.92 87.0752 72.44C86.1552 71.96 85.4418 71.3067 84.9352 70.48C84.4285 69.64 84.1752 68.6867 84.1752 67.62C84.1752 66.54 84.4218 65.5867 84.9152 64.76C85.4218 63.92 86.1085 63.2667 86.9752 62.8C87.8418 62.32 88.8218 62.08 89.9152 62.08C90.9685 62.08 91.9152 62.3067 92.7552 62.76C93.6085 63.2 94.2818 63.84 94.7752 64.68C95.2685 65.5067 95.5152 66.5 95.5152 67.66C95.5152 67.78 95.5085 67.92 95.4952 68.08C95.4818 68.2267 95.4685 68.3667 95.4552 68.5H86.7152V66.68H93.8152L92.6152 67.22C92.6152 66.66 92.5018 66.1733 92.2752 65.76C92.0485 65.3467 91.7352 65.0267 91.3352 64.8C90.9352 64.56 90.4685 64.44 89.9352 64.44C89.4018 64.44 88.9285 64.56 88.5152 64.8C88.1152 65.0267 87.8018 65.3533 87.5752 65.78C87.3485 66.1933 87.2352 66.6867 87.2352 67.26V67.74C87.2352 68.3267 87.3618 68.8467 87.6152 69.3C87.8818 69.74 88.2485 70.08 88.7152 70.32C89.1952 70.5467 89.7552 70.66 90.3952 70.66C90.9685 70.66 91.4685 70.5733 91.8952 70.4C92.3352 70.2267 92.7352 69.9667 93.0952 69.62L94.7552 71.42C94.2618 71.98 93.6418 72.4133 92.8952 72.72C92.1485 73.0133 91.2885 73.16 90.3152 73.16ZM102.212 73.16C101.199 73.16 100.286 72.9333 99.4723 72.48C98.659 72.0133 98.0123 71.3667 97.5323 70.54C97.0657 69.7133 96.8323 68.74 96.8323 67.62C96.8323 66.4867 97.0657 65.5067 97.5323 64.68C98.0123 63.8533 98.659 63.2133 99.4723 62.76C100.286 62.3067 101.199 62.08 102.212 62.08C103.119 62.08 103.912 62.28 104.592 62.68C105.272 63.08 105.799 63.6867 106.172 64.5C106.546 65.3133 106.732 66.3533 106.732 67.62C106.732 68.8733 106.552 69.9133 106.192 70.74C105.832 71.5533 105.312 72.16 104.632 72.56C103.966 72.96 103.159 73.16 102.212 73.16ZM102.752 70.6C103.259 70.6 103.719 70.48 104.132 70.24C104.546 70 104.872 69.66 105.112 69.22C105.366 68.7667 105.492 68.2333 105.492 67.62C105.492 66.9933 105.366 66.46 105.112 66.02C104.872 65.58 104.546 65.24 104.132 65C103.719 64.76 103.259 64.64 102.752 64.64C102.232 64.64 101.766 64.76 101.352 65C100.939 65.24 100.606 65.58 100.352 66.02C100.112 66.46 99.9923 66.9933 99.9923 67.62C99.9923 68.2333 100.112 68.7667 100.352 69.22C100.606 69.66 100.939 70 101.352 70.24C101.766 70.48 102.232 70.6 102.752 70.6ZM105.572 73V70.8L105.632 67.6L105.432 64.42V58.16H108.552V73H105.572Z" fill="#212121"/>
<path d="M79.2576 125V108.2H82.4736L92.3856 120.296H90.8256V108.2H94.6656V125H91.4736L81.5376 112.904H83.0976V125H79.2576ZM98.6404 125V108.2H105.912C107.416 108.2 108.712 108.448 109.8 108.944C110.888 109.424 111.728 110.12 112.32 111.032C112.912 111.944 113.208 113.032 113.208 114.296C113.208 115.544 112.912 116.624 112.32 117.536C111.728 118.448 110.888 119.152 109.8 119.648C108.712 120.128 107.416 120.368 105.912 120.368H100.8L102.528 118.616V125H98.6404ZM102.528 119.048L100.8 117.2H105.696C106.896 117.2 107.792 116.944 108.384 116.432C108.976 115.92 109.272 115.208 109.272 114.296C109.272 113.368 108.976 112.648 108.384 112.136C107.792 111.624 106.896 111.368 105.696 111.368H100.8L102.528 109.52V119.048ZM124.379 125.288C123.051 125.288 121.819 125.072 120.683 124.64C119.563 124.208 118.587 123.6 117.755 122.816C116.939 122.032 116.299 121.112 115.835 120.056C115.387 119 115.163 117.848 115.163 116.6C115.163 115.352 115.387 114.2 115.835 113.144C116.299 112.088 116.947 111.168 117.779 110.384C118.611 109.6 119.587 108.992 120.707 108.56C121.827 108.128 123.043 107.912 124.355 107.912C125.683 107.912 126.899 108.128 128.003 108.56C129.123 108.992 130.091 109.6 130.907 110.384C131.739 111.168 132.387 112.088 132.851 113.144C133.315 114.184 133.547 115.336 133.547 116.6C133.547 117.848 133.315 119.008 132.851 120.08C132.387 121.136 131.739 122.056 130.907 122.84C130.091 123.608 129.123 124.208 128.003 124.64C126.899 125.072 125.691 125.288 124.379 125.288ZM124.355 121.976C125.107 121.976 125.795 121.848 126.419 121.592C127.059 121.336 127.619 120.968 128.099 120.488C128.579 120.008 128.947 119.44 129.203 118.784C129.475 118.128 129.611 117.4 129.611 116.6C129.611 115.8 129.475 115.072 129.203 114.416C128.947 113.76 128.579 113.192 128.099 112.712C127.635 112.232 127.083 111.864 126.443 111.608C125.803 111.352 125.107 111.224 124.355 111.224C123.603 111.224 122.907 111.352 122.267 111.608C121.643 111.864 121.091 112.232 120.611 112.712C120.131 113.192 119.755 113.76 119.483 114.416C119.227 115.072 119.099 115.8 119.099 116.6C119.099 117.384 119.227 118.112 119.483 118.784C119.755 119.44 120.123 120.008 120.587 120.488C121.067 120.968 121.627 121.336 122.267 121.592C122.907 121.848 123.603 121.976 124.355 121.976ZM135.205 115.16L136.789 109.4L137.317 111.584C136.629 111.584 136.061 111.384 135.613 110.984C135.181 110.568 134.965 110.008 134.965 109.304C134.965 108.616 135.189 108.064 135.637 107.648C136.085 107.216 136.637 107 137.293 107C137.965 107 138.517 107.216 138.949 107.648C139.381 108.064 139.597 108.616 139.597 109.304C139.597 109.512 139.581 109.72 139.549 109.928C139.533 110.12 139.477 110.352 139.381 110.624C139.301 110.896 139.165 111.256 138.973 111.704L137.581 115.16H135.205ZM146.056 125.192C144.952 125.192 143.888 125.064 142.864 124.808C141.856 124.536 141.056 124.2 140.464 123.8L141.712 121.112C142.304 121.48 143 121.784 143.8 122.024C144.616 122.248 145.416 122.36 146.2 122.36C147.064 122.36 147.672 122.256 148.024 122.048C148.392 121.84 148.576 121.552 148.576 121.184C148.576 120.88 148.432 120.656 148.144 120.512C147.872 120.352 147.504 120.232 147.04 120.152C146.576 120.072 146.064 119.992 145.504 119.912C144.96 119.832 144.408 119.728 143.848 119.6C143.288 119.456 142.776 119.248 142.312 118.976C141.848 118.704 141.472 118.336 141.184 117.872C140.912 117.408 140.776 116.808 140.776 116.072C140.776 115.256 141.008 114.536 141.472 113.912C141.952 113.288 142.64 112.8 143.536 112.448C144.432 112.08 145.504 111.896 146.752 111.896C147.632 111.896 148.528 111.992 149.44 112.184C150.352 112.376 151.112 112.656 151.72 113.024L150.472 115.688C149.848 115.32 149.216 115.072 148.576 114.944C147.952 114.8 147.344 114.728 146.752 114.728C145.92 114.728 145.312 114.84 144.928 115.064C144.544 115.288 144.352 115.576 144.352 115.928C144.352 116.248 144.488 116.488 144.76 116.648C145.048 116.808 145.424 116.936 145.888 117.032C146.352 117.128 146.856 117.216 147.4 117.296C147.96 117.36 148.52 117.464 149.08 117.608C149.64 117.752 150.144 117.96 150.592 118.232C151.056 118.488 151.432 118.848 151.72 119.312C152.008 119.76 152.152 120.352 152.152 121.088C152.152 121.888 151.912 122.6 151.432 123.224C150.952 123.832 150.256 124.312 149.344 124.664C148.448 125.016 147.352 125.192 146.056 125.192Z" fill="#212121"/>
</svg>
