<svg width="32" height="32" viewBox="0 0 32 32" fill="none" xmlns="http://www.w3.org/2000/svg">
<path d="M24.001 5.33231C23.7655 5.15717 23.4976 5.03034 23.2129 4.95911C22.9281 4.88789 22.6321 4.87368 22.3419 4.9173C22.0516 4.96092 21.7728 5.06151 21.5216 5.21328C21.2703 5.36505 21.0516 5.56501 20.8779 5.80164L7.88327 26.0674C7.82245 26.1619 7.79966 26.2758 7.81947 26.3864C7.83927 26.497 7.90021 26.5959 7.99003 26.6634C8.07985 26.7309 8.19188 26.7618 8.30359 26.75C8.41529 26.7382 8.5184 26.6846 8.59216 26.5999L24.4224 8.46209C24.4298 8.45384 24.4367 8.44524 24.4433 8.43631C24.7955 7.96577 24.9467 7.37477 24.8638 6.7929C24.7809 6.21102 24.4706 5.68577 24.001 5.33231V5.33231ZM22.3922 7.91453C22.2095 8.2033 21.9312 8.41878 21.6059 8.52342C21.6157 8.182 21.745 7.85483 21.9713 7.59898C22.1538 7.3103 22.4319 7.09482 22.757 6.99009C22.7472 7.3314 22.6181 7.65848 22.3922 7.91453V7.91453Z" fill="#490374"/>
<path d="M20.5798 6.27022C17.7861 5.79245 15.2078 7.81423 15.0954 7.90356C15.0032 7.97699 14.9439 8.08406 14.9306 8.20121C14.9173 8.31836 14.9511 8.43599 15.0245 8.52823C15.0979 8.62046 15.205 8.67975 15.3222 8.69304C15.4393 8.70634 15.5569 8.67255 15.6492 8.59911C15.6718 8.58134 17.7847 6.93245 20.0474 7.10045L20.5798 6.27022Z" fill="#490374"/>
<path d="M21.8939 7.70871C21.9973 7.77419 22.0985 7.84456 22.1975 7.91982C23.0413 8.52202 23.6929 9.35538 24.0739 10.3195C24.4548 11.2836 24.5488 12.3373 24.3446 13.3536C24.3175 13.5012 23.6313 16.9723 19.9255 17.082C18.7232 17.038 17.5312 16.8431 16.3775 16.502C12.9642 15.6776 8.71793 14.6532 4.58904 18.4429C4.50222 18.5227 4.45067 18.6338 4.44571 18.7516C4.44075 18.8694 4.48279 18.9843 4.56259 19.0712C4.64239 19.158 4.75341 19.2095 4.87123 19.2145C4.98904 19.2194 5.104 19.1774 5.19082 19.0976C8.96993 15.6283 12.7939 16.5509 16.1686 17.3656C17.4 17.7211 18.6704 17.9244 19.9513 17.9709C24.3868 17.8389 25.2113 13.5558 25.2122 13.5429C25.4546 12.3612 25.3497 11.1346 24.9102 10.0112C24.4707 8.8878 23.7153 7.91568 22.7353 7.21227C22.6719 7.16397 22.6076 7.1173 22.5424 7.07227C22.2869 7.21496 22.0721 7.42057 21.9184 7.6696L21.8939 7.70871Z" fill="#490374"/>
</svg>
