<svg width="83" height="72" viewBox="0 0 83 72" fill="none" xmlns="http://www.w3.org/2000/svg">
<path d="M40.6236 23.7773C33.6837 23.7773 28.0566 28.6379 28.0566 34.6325C28.0566 40.6271 33.6837 45.4877 40.6236 45.4877C47.5634 45.4877 53.1905 40.6271 53.1905 34.6325C53.1905 28.6379 47.5634 23.7773 40.6236 23.7773ZM41.2491 39.8953L41.2547 40.6634C41.2547 40.77 41.1537 40.8597 41.0303 40.8597H40.2337C40.1102 40.8597 40.0092 40.7725 40.0092 40.6658V39.905C37.5183 39.7451 36.3458 38.519 36.2195 37.1864C36.2083 37.0725 36.3121 36.9756 36.4439 36.9756H37.7399C37.8493 36.9756 37.9447 37.0434 37.9615 37.1355C38.1046 37.9036 38.7974 38.4779 40.0401 38.6208V35.1632L39.3472 35.0105C37.8802 34.7076 36.4832 33.9177 36.4832 32.2797C36.4832 30.5134 38.0372 29.5635 40.0233 29.3963V28.5967C40.0233 28.4901 40.1243 28.4029 40.2477 28.4029H41.0359C41.1593 28.4029 41.2603 28.4901 41.2603 28.5967V29.3891C43.1818 29.5563 44.6237 30.5255 44.792 32.035C44.806 32.1489 44.7022 32.2482 44.5676 32.2482H43.3081C43.1959 32.2482 43.1005 32.1756 43.0865 32.0811C42.9743 31.3735 42.3179 30.7969 41.2491 30.6709V33.925L41.9616 34.0679C43.7793 34.4556 45.0164 35.2068 45.0164 36.8883C45.0164 38.7129 43.4455 39.7306 41.2491 39.8953ZM38.228 32.1683C38.228 32.7837 38.6684 33.2611 39.6165 33.5567C39.7484 33.6027 39.8802 33.6391 40.0373 33.6778V30.6733C39.0022 30.7872 38.228 31.2887 38.228 32.1683ZM41.496 35.4442C41.4174 35.4297 41.3389 35.4127 41.2491 35.3909V38.6305C42.4441 38.5384 43.2688 37.9714 43.2688 37.0216C43.2688 36.2777 42.8228 35.7931 41.496 35.4442Z" fill="#490374"/>
<path d="M59.6194 34.6335C59.6194 43.4834 51.2452 50.6577 40.9151 50.6577C30.5851 50.6577 22.2109 43.4834 22.2109 34.6335C22.2109 25.7836 30.5851 18.6094 40.9151 18.6094C51.2452 18.6094 59.6194 25.7836 59.6194 34.6335ZM24.0814 34.6335C24.0814 42.5985 31.6181 49.0553 40.9151 49.0553C50.2122 49.0553 57.7489 42.5985 57.7489 34.6335C57.7489 26.6686 50.2122 20.2118 40.9151 20.2118C31.6181 20.2118 24.0814 26.6686 24.0814 34.6335Z" fill="#490374"/>
<rect x="39.7461" y="12.4062" width="2.33804" height="5.16907" fill="#490374"/>
<rect width="2.21267" height="5.50356" transform="matrix(0.762584 0.646889 -0.735171 0.677882 58.9883 16.541)" fill="#490374"/>
<rect x="39.7461" y="52.7246" width="2.33804" height="5.16931" fill="#490374"/>
<rect width="2.0679" height="5.84505" transform="matrix(0.00622194 0.999981 -0.999988 0.00486728 67.8027 33.082)" fill="#490374"/>
<rect width="2.18366" height="5.57526" transform="matrix(-0.688852 0.724902 -0.802598 -0.59652 62.1445 50.8008)" fill="#490374"/>
<rect width="2.0679" height="5.84505" transform="matrix(0.00622194 0.999981 -0.999988 0.00486728 19.8711 33.082)" fill="#490374"/>
<rect width="2.18799" height="5.56466" transform="matrix(0.700568 0.713586 -0.793154 0.609021 24.2871 47.5566)" fill="#490374"/>
<rect width="2.18513" height="5.57149" transform="matrix(-0.692988 0.72095 -0.799332 -0.600889 25.9492 20.7305)" fill="#490374"/>
<path d="M40.9154 10.3383C37.6872 10.3383 35.0703 8.02404 35.0703 5.16913C35.0703 2.31422 37.6872 0 40.9154 0C44.1436 0 46.7605 2.31422 46.7605 5.16913C46.7605 8.02404 44.1436 10.3383 40.9154 10.3383ZM38.0004 8.40294C38.8278 8.98792 39.8561 9.30592 40.9154 9.30443C42.0215 9.30585 43.092 8.95917 43.9355 8.32643C43.5549 7.981 43.0997 7.70659 42.597 7.51943C42.0944 7.33227 41.5543 7.23616 41.0089 7.23678C40.4435 7.2362 39.884 7.33957 39.3661 7.54032C38.8482 7.74107 38.3832 8.03482 38.0004 8.40294ZM37.1839 7.66065C37.6751 7.1996 38.268 6.83241 38.9258 6.58171C39.5837 6.331 40.2926 6.20211 41.0089 6.20295C41.6996 6.20216 42.3837 6.32203 43.0218 6.55569C43.66 6.78934 44.2396 7.13217 44.7275 7.5645C45.2279 6.94169 45.5234 6.20845 45.5813 5.44615C45.6391 4.68384 45.457 3.92228 45.0552 3.24593C44.6533 2.56959 44.0475 2.00491 43.3048 1.61455C42.5622 1.22419 41.7118 1.0234 40.8479 1.03447C39.9841 1.04554 39.1406 1.26803 38.4111 1.67726C37.6815 2.08648 37.0944 2.66644 36.7149 3.3528C36.3354 4.03916 36.1784 4.80507 36.2611 5.56557C36.3439 6.32608 36.6633 7.05143 37.1839 7.66116V7.66065ZM40.9154 5.68604C40.2953 5.68604 39.7006 5.4682 39.2622 5.08044C38.8237 4.69268 38.5774 4.16676 38.5774 3.61839C38.5774 3.07001 38.8237 2.5441 39.2622 2.15634C39.7006 1.76858 40.2953 1.55074 40.9154 1.55074C41.5355 1.55074 42.1302 1.76858 42.5686 2.15634C43.0071 2.5441 43.2534 3.07001 43.2534 3.61839C43.2534 4.16676 43.0071 4.69268 42.5686 5.08044C42.1302 5.4682 41.5355 5.68604 40.9154 5.68604ZM40.9154 4.65222C41.2254 4.65222 41.5228 4.54329 41.742 4.34941C41.9612 4.15553 42.0844 3.89258 42.0844 3.61839C42.0844 3.3442 41.9612 3.08124 41.742 2.88736C41.5228 2.69348 41.2254 2.58456 40.9154 2.58456C40.6053 2.58456 40.308 2.69348 40.0888 2.88736C39.8695 3.08124 39.7464 3.3442 39.7464 3.61839C39.7464 3.89258 39.8695 4.15553 40.0888 4.34941C40.308 4.54329 40.6053 4.65222 40.9154 4.65222Z" fill="#490374"/>
<path d="M65.4642 17.5746C62.236 17.5746 59.6191 15.2604 59.6191 12.4055C59.6191 9.55055 62.236 7.23633 65.4642 7.23633C68.6925 7.23633 71.3093 9.55055 71.3093 12.4055C71.3093 15.2604 68.6925 17.5746 65.4642 17.5746ZM62.5493 15.6393C63.3767 16.2243 64.4049 16.5422 65.4642 16.5408C66.5703 16.5422 67.6409 16.1955 68.4844 15.5628C68.1037 15.2173 67.6486 14.9429 67.1459 14.7558C66.6432 14.5686 66.1032 14.4725 65.5578 14.4731C64.9923 14.4725 64.4329 14.5759 63.915 14.7766C63.3971 14.9774 62.932 15.2711 62.5493 15.6393ZM61.7327 14.897C62.224 14.4359 62.8168 14.0687 63.4746 13.818C64.1325 13.5673 64.8414 13.4384 65.5578 13.4393C66.2484 13.4385 66.9325 13.5584 67.5707 13.792C68.2088 14.0257 68.7885 14.3685 69.2764 14.8008C69.7768 14.178 70.0723 13.4448 70.1301 12.6825C70.1879 11.9202 70.0058 11.1586 69.604 10.4823C69.2022 9.80591 68.5963 9.24124 67.8537 8.85088C67.111 8.46052 66.2606 8.25973 65.3968 8.2708C64.5329 8.28187 63.6895 8.50436 62.9599 8.91358C62.2304 9.32281 61.6433 9.90277 61.2638 10.5891C60.8843 11.2755 60.7272 12.0414 60.81 12.8019C60.8927 13.5624 61.2121 14.2878 61.7327 14.8975V14.897ZM65.4642 12.9224C64.8441 12.9224 64.2495 12.7045 63.811 12.3168C63.3725 11.929 63.1262 11.4031 63.1262 10.8547C63.1262 10.3063 63.3725 9.78043 63.811 9.39267C64.2495 9.00491 64.8441 8.78707 65.4642 8.78707C66.0843 8.78707 66.679 9.00491 67.1175 9.39267C67.5559 9.78043 67.8023 10.3063 67.8023 10.8547C67.8023 11.4031 67.5559 11.929 67.1175 12.3168C66.679 12.7045 66.0843 12.9224 65.4642 12.9224ZM65.4642 11.8885C65.7743 11.8885 66.0716 11.7796 66.2909 11.5857C66.5101 11.3919 66.6333 11.1289 66.6333 10.8547C66.6333 10.5805 66.5101 10.3176 66.2909 10.1237C66.0716 9.92981 65.7743 9.82089 65.4642 9.82089C65.1542 9.82089 64.8568 9.92981 64.6376 10.1237C64.4184 10.3176 64.2952 10.5805 64.2952 10.8547C64.2952 11.1289 64.4184 11.3919 64.6376 11.5857C64.8568 11.7796 65.1542 11.8885 65.4642 11.8885Z" fill="#490374"/>
<path d="M14.0287 17.5746C10.8004 17.5746 8.18359 15.2604 8.18359 12.4055C8.18359 9.55055 10.8004 7.23633 14.0287 7.23633C17.2569 7.23633 19.8737 9.55055 19.8737 12.4055C19.8737 15.2604 17.2569 17.5746 14.0287 17.5746ZM11.1137 15.6393C11.9411 16.2243 12.9694 16.5422 14.0287 16.5408C15.1348 16.5422 16.2053 16.1955 17.0488 15.5628C16.6681 15.2173 16.213 14.9429 15.7103 14.7558C15.2076 14.5686 14.6676 14.4725 14.1222 14.4731C13.5567 14.4725 12.9973 14.5759 12.4794 14.7766C11.9615 14.9774 11.4965 15.2711 11.1137 15.6393ZM10.2972 14.897C10.7884 14.4359 11.3812 14.0687 12.0391 13.818C12.6969 13.5673 13.4059 13.4384 14.1222 13.4393C14.8129 13.4385 15.4969 13.5584 16.1351 13.792C16.7732 14.0257 17.3529 14.3685 17.8408 14.8008C18.3412 14.178 18.6367 13.4448 18.6945 12.6825C18.7524 11.9202 18.5703 11.1586 18.1684 10.4823C17.7666 9.80591 17.1608 9.24124 16.4181 8.85088C15.6755 8.46052 14.8251 8.25973 13.9612 8.2708C13.0974 8.28187 12.2539 8.50436 11.5244 8.91358C10.7948 9.32281 10.2077 9.90277 9.82822 10.5891C9.44872 11.2755 9.29164 12.0414 9.37442 12.8019C9.4572 13.5624 9.7766 14.2878 10.2972 14.8975V14.897ZM14.0287 12.9224C13.4086 12.9224 12.8139 12.7045 12.3754 12.3168C11.937 11.929 11.6906 11.4031 11.6906 10.8547C11.6906 10.3063 11.937 9.78043 12.3754 9.39267C12.8139 9.00491 13.4086 8.78707 14.0287 8.78707C14.6488 8.78707 15.2434 9.00491 15.6819 9.39267C16.1204 9.78043 16.3667 10.3063 16.3667 10.8547C16.3667 11.4031 16.1204 11.929 15.6819 12.3168C15.2434 12.7045 14.6488 12.9224 14.0287 12.9224ZM14.0287 11.8885C14.3387 11.8885 14.6361 11.7796 14.8553 11.5857C15.0745 11.3919 15.1977 11.1289 15.1977 10.8547C15.1977 10.5805 15.0745 10.3176 14.8553 10.1237C14.6361 9.92981 14.3387 9.82089 14.0287 9.82089C13.7186 9.82089 13.4213 9.92981 13.2021 10.1237C12.9828 10.3176 12.8597 10.5805 12.8597 10.8547C12.8597 11.1289 12.9828 11.3919 13.2021 11.5857C13.4213 11.7796 13.7186 11.8885 14.0287 11.8885Z" fill="#490374"/>
<path d="M77.1537 38.2524C73.9254 38.2524 71.3086 35.9382 71.3086 33.0833C71.3086 30.2283 73.9254 27.9141 77.1537 27.9141C80.3819 27.9141 82.9987 30.2283 82.9987 33.0833C82.9987 35.9382 80.3819 38.2524 77.1537 38.2524ZM74.2387 36.3171C75.0661 36.9021 76.0943 37.2201 77.1537 37.2186C78.2597 37.22 79.3303 36.8733 80.1738 36.2406C79.7931 35.8952 79.338 35.6207 78.8353 35.4336C78.3326 35.2464 77.7926 35.1503 77.2472 35.1509C76.6817 35.1504 76.1223 35.2537 75.6044 35.4545C75.0865 35.6552 74.6214 35.949 74.2387 36.3171ZM73.4222 35.5748C73.9134 35.1137 74.5062 34.7465 75.1641 34.4958C75.8219 34.2451 76.5309 34.1162 77.2472 34.1171C77.9379 34.1163 78.6219 34.2362 79.2601 34.4698C79.8982 34.7035 80.4779 35.0463 80.9658 35.4787C81.4662 34.8558 81.7617 34.1226 81.8195 33.3603C81.8773 32.598 81.6952 31.8364 81.2934 31.16C80.8916 30.4837 80.2857 29.919 79.5431 29.5286C78.8005 29.1383 77.95 28.9375 77.0862 28.9485C76.2224 28.9596 75.3789 29.1821 74.6494 29.5913C73.9198 30.0006 73.3327 30.5805 72.9532 31.2669C72.5737 31.9533 72.4166 32.7192 72.4994 33.4797C72.5822 34.2402 72.9016 34.9656 73.4222 35.5753V35.5748ZM77.1537 33.6002C76.5336 33.6002 75.9389 33.3823 75.5004 32.9946C75.062 32.6068 74.8156 32.0809 74.8156 31.5325C74.8156 30.9841 75.062 30.4582 75.5004 30.0704C75.9389 29.6827 76.5336 29.4648 77.1537 29.4648C77.7737 29.4648 78.3684 29.6827 78.8069 30.0704C79.2454 30.4582 79.4917 30.9841 79.4917 31.5325C79.4917 32.0809 79.2454 32.6068 78.8069 32.9946C78.3684 33.3823 77.7737 33.6002 77.1537 33.6002ZM77.1537 32.5663C77.4637 32.5663 77.761 32.4574 77.9803 32.2635C78.1995 32.0696 78.3227 31.8067 78.3227 31.5325C78.3227 31.2583 78.1995 30.9953 77.9803 30.8015C77.761 30.6076 77.4637 30.4987 77.1537 30.4987C76.8436 30.4987 76.5463 30.6076 76.327 30.8015C76.1078 30.9953 75.9846 31.2583 75.9846 31.5325C75.9846 31.8067 76.1078 32.0696 76.327 32.2635C76.5463 32.4574 76.8436 32.5663 77.1537 32.5663Z" fill="#490374"/>
<path d="M5.84508 39.2854C2.61684 39.2854 0 36.9712 0 34.1163C0 31.2615 2.61684 28.9473 5.84508 28.9473C9.07331 28.9473 11.6902 31.2615 11.6902 34.1163C11.6902 36.9712 9.07331 39.2854 5.84508 39.2854ZM2.93014 37.3501C3.75754 37.9351 4.78576 38.2531 5.84508 38.2516C6.95116 38.253 8.02172 37.9063 8.86523 37.2736C8.48455 36.9282 8.02941 36.6538 7.52673 36.4666C7.02404 36.2794 6.48402 36.1833 5.9386 36.184C5.37314 36.1834 4.81372 36.2867 4.29582 36.4875C3.77792 36.6882 3.31286 36.982 2.93014 37.3501ZM2.11358 36.6078C2.60483 36.1468 3.19765 35.7796 3.85549 35.5289C4.51334 35.2782 5.22227 35.1493 5.9386 35.1501C6.62928 35.1494 7.31334 35.2692 7.95149 35.5029C8.58965 35.7365 9.16932 36.0794 9.65724 36.5117C10.1576 35.8889 10.4531 35.1556 10.5109 34.3933C10.5688 33.6311 10.3867 32.8695 9.98485 32.1932C9.58302 31.5168 8.97717 30.9522 8.23453 30.5618C7.49188 30.1714 6.64146 29.9707 5.77763 29.9817C4.91379 29.9928 4.07031 30.2153 3.34077 30.6245C2.61122 31.0337 2.02413 31.6137 1.64462 32.3C1.26512 32.9864 1.10805 33.7523 1.19083 34.5128C1.27361 35.2733 1.593 35.9986 2.11358 36.6083V36.6078ZM5.84508 34.6332C5.22499 34.6332 4.63031 34.4154 4.19184 34.0276C3.75337 33.6399 3.50705 33.114 3.50705 32.5656C3.50705 32.0172 3.75337 31.4913 4.19184 31.1036C4.63031 30.7158 5.22499 30.498 5.84508 30.498C6.46516 30.498 7.05985 30.7158 7.49832 31.1036C7.93678 31.4913 8.18311 32.0172 8.18311 32.5656C8.18311 33.114 7.93678 33.6399 7.49832 34.0276C7.05985 34.4154 6.46516 34.6332 5.84508 34.6332ZM5.84508 33.5994C6.15512 33.5994 6.45246 33.4905 6.6717 33.2966C6.89093 33.1028 7.01409 32.8398 7.01409 32.5656C7.01409 32.2914 6.89093 32.0285 6.6717 31.8346C6.45246 31.6407 6.15512 31.5318 5.84508 31.5318C5.53504 31.5318 5.23769 31.6407 5.01846 31.8346C4.79923 32.0285 4.67606 32.2914 4.67606 32.5656C4.67606 32.8398 4.79923 33.1028 5.01846 33.2966C5.23769 33.4905 5.53504 33.5994 5.84508 33.5994Z" fill="#490374"/>
<path d="M70.14 59.9617C66.9117 59.9617 64.2949 57.6474 64.2949 54.7924C64.2949 51.9373 66.9117 49.623 70.14 49.623C73.3682 49.623 75.985 51.9373 75.985 54.7924C75.985 57.6474 73.3682 59.9617 70.14 59.9617ZM67.225 58.0263C68.0524 58.6113 69.0807 58.9293 70.14 58.9278C71.246 58.9292 72.3166 58.5825 73.1601 57.9498C72.7794 57.6043 72.3243 57.3299 71.8216 57.1427C71.3189 56.9556 70.7789 56.8595 70.2335 56.8601C69.668 56.8595 69.1086 56.9629 68.5907 57.1636C68.0728 57.3644 67.6078 57.6582 67.225 58.0263ZM66.4085 57.284C66.8997 56.8229 67.4926 56.4557 68.1504 56.205C68.8082 55.9543 69.5172 55.8254 70.2335 55.8262C70.9242 55.8254 71.6082 55.9453 72.2464 56.179C72.8845 56.4126 73.4642 56.7555 73.9521 57.1878C74.4525 56.565 74.748 55.8317 74.8058 55.0694C74.8636 54.3071 74.6815 53.5455 74.2797 52.8691C73.8779 52.1927 73.272 51.628 72.5294 51.2377C71.7868 50.8473 70.9363 50.6465 70.0725 50.6576C69.2087 50.6686 68.3652 50.8911 67.6357 51.3004C66.9061 51.7096 66.319 52.2896 65.9395 52.976C65.56 53.6623 65.403 54.4283 65.4857 55.1888C65.5685 55.9493 65.8879 56.6747 66.4085 57.2845V57.284ZM70.14 55.3093C69.5199 55.3093 68.9252 55.0914 68.4867 54.7037C68.0483 54.3159 67.802 53.79 67.802 53.2416C67.802 52.6932 68.0483 52.1672 68.4867 51.7795C68.9252 51.3917 69.5199 51.1738 70.14 51.1738C70.7601 51.1738 71.3547 51.3917 71.7932 51.7795C72.2317 52.1672 72.478 52.6932 72.478 53.2416C72.478 53.79 72.2317 54.3159 71.7932 54.7037C71.3547 55.0914 70.7601 55.3093 70.14 55.3093ZM70.14 54.2754C70.45 54.2754 70.7474 54.1665 70.9666 53.9726C71.1858 53.7787 71.309 53.5158 71.309 53.2416C71.309 52.9674 71.1858 52.7044 70.9666 52.5105C70.7474 52.3166 70.45 52.2077 70.14 52.2077C69.8299 52.2077 69.5326 52.3166 69.3134 52.5105C69.0941 52.7044 68.971 52.9674 68.971 53.2416C68.971 53.5158 69.0941 53.7787 69.3134 53.9726C69.5326 54.1665 69.8299 54.2754 70.14 54.2754Z" fill="#490374"/>
<path d="M11.6888 60.9946C8.46059 60.9946 5.84375 58.6804 5.84375 55.8254C5.84375 52.9705 8.46059 50.6562 11.6888 50.6562C14.9171 50.6562 17.5339 52.9705 17.5339 55.8254C17.5339 58.6804 14.9171 60.9946 11.6888 60.9946ZM8.77389 59.0593C9.60129 59.6443 10.6295 59.9623 11.6888 59.9608C12.7949 59.9622 13.8655 59.6155 14.709 58.9828C14.3283 58.6373 13.8732 58.3629 13.3705 58.1758C12.8678 57.9886 12.3278 57.8925 11.7823 57.8931C11.2169 57.8925 10.6575 57.9959 10.1396 58.1967C9.62167 58.3974 9.15661 58.6912 8.77389 59.0593ZM7.95733 58.317C8.44858 57.8559 9.0414 57.4887 9.69924 57.238C10.3571 56.9873 11.066 56.8584 11.7823 56.8593C12.473 56.8585 13.1571 56.9784 13.7952 57.212C14.4334 57.4457 15.0131 57.7885 15.501 58.2208C16.0014 57.598 16.2969 56.8648 16.3547 56.1025C16.4125 55.3402 16.2304 54.5786 15.8286 53.9022C15.4268 53.2259 14.8209 52.6612 14.0783 52.2708C13.3356 51.8805 12.4852 51.6797 11.6214 51.6907C10.7575 51.7018 9.91406 51.9243 9.18452 52.3335C8.45497 52.7428 7.86788 53.3227 7.48837 54.0091C7.10887 54.6955 6.9518 55.4614 7.03458 56.2219C7.11736 56.9824 7.43675 57.7078 7.95733 58.3175V58.317ZM11.6888 56.3424C11.0687 56.3424 10.4741 56.1245 10.0356 55.7368C9.59712 55.349 9.3508 54.8231 9.3508 54.2747C9.3508 53.7263 9.59712 53.2004 10.0356 52.8126C10.4741 52.4249 11.0687 52.207 11.6888 52.207C12.3089 52.207 12.9036 52.4249 13.3421 52.8126C13.7805 53.2004 14.0269 53.7263 14.0269 54.2747C14.0269 54.8231 13.7805 55.349 13.3421 55.7368C12.9036 56.1245 12.3089 56.3424 11.6888 56.3424ZM11.6888 55.3085C11.9989 55.3085 12.2962 55.1996 12.5154 55.0057C12.7347 54.8118 12.8578 54.5489 12.8578 54.2747C12.8578 54.0005 12.7347 53.7375 12.5154 53.5436C12.2962 53.3498 11.9989 53.2408 11.6888 53.2408C11.3788 53.2408 11.0814 53.3498 10.8622 53.5436C10.643 53.7375 10.5198 54.0005 10.5198 54.2747C10.5198 54.5489 10.643 54.8118 10.8622 55.0057C11.0814 55.1996 11.3788 55.3085 11.6888 55.3085Z" fill="#490374"/>
<path d="M40.9154 71.3342C37.6872 71.3342 35.0703 69.02 35.0703 66.1652C35.0703 63.3103 37.6872 60.9961 40.9154 60.9961C44.1436 60.9961 46.7605 63.3103 46.7605 66.1652C46.7605 69.02 44.1436 71.3342 40.9154 71.3342ZM38.0004 69.3989C38.8278 69.9839 39.8561 70.3019 40.9154 70.3004C42.0215 70.3018 43.092 69.9552 43.9355 69.3224C43.5549 68.977 43.0997 68.7026 42.597 68.5154C42.0944 68.3283 41.5543 68.2322 41.0089 68.2328C40.4435 68.2322 39.884 68.3356 39.3661 68.5363C38.8482 68.7371 38.3832 69.0308 38.0004 69.3989ZM37.1839 68.6567C37.6751 68.1956 38.268 67.8284 38.9258 67.5777C39.5837 67.327 40.2926 67.1981 41.0089 67.199C41.6996 67.1982 42.3837 67.318 43.0218 67.5517C43.66 67.7854 44.2396 68.1282 44.7275 68.5605C45.2279 67.9377 45.5234 67.2045 45.5813 66.4422C45.6391 65.6799 45.457 64.9183 45.0552 64.242C44.6533 63.5656 44.0475 63.001 43.3048 62.6106C42.5622 62.2203 41.7118 62.0195 40.8479 62.0306C39.9841 62.0416 39.1406 62.2641 38.4111 62.6733C37.6815 63.0826 37.0944 63.6625 36.7149 64.3489C36.3354 65.0352 36.1784 65.8011 36.2611 66.5616C36.3439 67.3221 36.6633 68.0474 37.1839 68.6572V68.6567ZM40.9154 66.6821C40.2953 66.6821 39.7006 66.4642 39.2622 66.0765C38.8237 65.6887 38.5774 65.1628 38.5774 64.6144C38.5774 64.0661 38.8237 63.5402 39.2622 63.1524C39.7006 62.7647 40.2953 62.5468 40.9154 62.5468C41.5355 62.5468 42.1302 62.7647 42.5686 63.1524C43.0071 63.5402 43.2534 64.0661 43.2534 64.6144C43.2534 65.1628 43.0071 65.6887 42.5686 66.0765C42.1302 66.4642 41.5355 66.6821 40.9154 66.6821ZM40.9154 65.6483C41.2254 65.6483 41.5228 65.5393 41.742 65.3455C41.9612 65.1516 42.0844 64.8886 42.0844 64.6144C42.0844 64.3403 41.9612 64.0773 41.742 63.8834C41.5228 63.6895 41.2254 63.5806 40.9154 63.5806C40.6053 63.5806 40.308 63.6895 40.0888 63.8834C39.8695 64.0773 39.7464 64.3403 39.7464 64.6144C39.7464 64.8886 39.8695 65.1516 40.0888 65.3455C40.308 65.5393 40.6053 65.6483 40.9154 65.6483Z" fill="#490374"/>
</svg>
