<svg width="36" height="36" viewBox="0 0 36 36" fill="none" xmlns="http://www.w3.org/2000/svg">
<path d="M12.0009 16.1404H11.1309C9.94369 16.0975 8.7603 16.2991 7.65419 16.7326C6.54809 17.1661 5.54287 17.8223 4.70094 18.6604L4.46094 18.9404V27.2204H8.54094V22.5204L9.09094 21.9004L9.34094 21.6104C10.6429 20.2729 12.2637 19.2887 14.0509 18.7504C13.1561 18.0696 12.4504 17.1711 12.0009 16.1404Z" fill="#034F7A"/>
<path d="M31.3403 18.6292C30.4984 17.791 29.4932 17.1348 28.3871 16.7013C27.281 16.2678 26.0976 16.0663 24.9103 16.1092C24.5462 16.1102 24.1824 16.1302 23.8203 16.1692C23.3624 17.1361 22.676 17.977 21.8203 18.6192C23.7283 19.147 25.4567 20.1841 26.8203 21.6192L27.0703 21.8992L27.6103 22.5192V27.2292H31.5503V18.9092L31.3403 18.6292Z" fill="#034F7A"/>
<path d="M11.0999 14.1908H11.4099C11.2658 12.954 11.4828 11.702 12.0347 10.5859C12.5866 9.46973 13.4497 8.53718 14.5199 7.90078C14.1319 7.30813 13.5967 6.82639 12.9667 6.50273C12.3366 6.17907 11.6333 6.02459 10.9256 6.05441C10.2179 6.08423 9.53009 6.29734 8.92949 6.67286C8.3289 7.04838 7.83613 7.57344 7.49943 8.19663C7.16273 8.81982 6.99365 9.51977 7.00874 10.2279C7.02383 10.9361 7.22258 11.6282 7.58553 12.2365C7.94847 12.8448 8.46317 13.3484 9.07922 13.6979C9.69527 14.0475 10.3915 14.2311 11.0999 14.2308V14.1908Z" fill="#034F7A"/>
<path d="M24.4307 13.4401C24.4428 13.6699 24.4428 13.9002 24.4307 14.1301C24.6226 14.1605 24.8164 14.1772 25.0107 14.1801H25.2007C25.9059 14.1425 26.5894 13.9229 27.1845 13.5427C27.7797 13.1626 28.2663 12.6348 28.597 12.0108C28.9276 11.3867 29.091 10.6877 29.0713 9.98179C29.0516 9.27585 28.8495 8.58704 28.4846 7.98241C28.1196 7.37779 27.6044 6.87796 26.9889 6.53159C26.3735 6.18521 25.6789 6.0041 24.9726 6.00587C24.2664 6.00765 23.5727 6.19226 22.959 6.54172C22.3453 6.89119 21.8326 7.39361 21.4707 8.00006C22.3758 8.59099 23.12 9.39736 23.6366 10.3468C24.1533 11.2963 24.4261 12.3592 24.4307 13.4401Z" fill="#034F7A"/>
<path d="M17.8704 17.9205C20.3391 17.9205 22.3404 15.9192 22.3404 13.4505C22.3404 10.9818 20.3391 8.98047 17.8704 8.98047C15.4017 8.98047 13.4004 10.9818 13.4004 13.4505C13.4004 15.9192 15.4017 17.9205 17.8704 17.9205Z" fill="#034F7A"/>
<path d="M18.11 20.3C16.804 20.2473 15.5009 20.4593 14.279 20.9233C13.0572 21.3873 11.9418 22.0937 11 23L10.75 23.28V29.61C10.7539 29.8162 10.7984 30.0196 10.8809 30.2086C10.9634 30.3975 11.0824 30.5684 11.231 30.7114C11.3796 30.8544 11.5549 30.9668 11.7469 31.042C11.9389 31.1173 12.1438 31.154 12.35 31.15H23.84C24.0462 31.154 24.2511 31.1173 24.4431 31.042C24.6351 30.9668 24.8104 30.8544 24.959 30.7114C25.1076 30.5684 25.2266 30.3975 25.3091 30.2086C25.3916 30.0196 25.4361 29.8162 25.44 29.61V23.3L25.2 23C24.2643 22.0909 23.1528 21.3825 21.9337 20.9182C20.7145 20.4539 19.4134 20.2436 18.11 20.3Z" fill="#034F7A"/>
</svg>
