<svg width="28" height="28" viewBox="0 0 28 28" fill="none" xmlns="http://www.w3.org/2000/svg">
<path d="M14.875 4.70283C16.0195 3.49708 17.9935 3.15233 20.321 3.38683C22.4805 3.60383 24.7013 4.30208 26.25 4.94958V22.3148C24.6435 21.7023 22.5627 21.1038 20.4978 20.8973C18.5833 20.7031 16.5112 20.8291 14.875 21.7583V4.70283ZM14 3.12083C12.2762 1.63858 9.77725 1.41808 7.50225 1.64558C4.85275 1.91333 2.17875 2.82158 0.51275 3.57933C0.359886 3.64886 0.230257 3.7609 0.139337 3.90209C0.0484167 4.04328 4.65e-05 4.20765 0 4.37558L0 23.6256C4.05335e-05 23.772 0.036815 23.916 0.106955 24.0445C0.177095 24.1731 0.278358 24.2819 0.401469 24.3611C0.52458 24.4404 0.665603 24.4874 0.811621 24.498C0.957639 24.5086 1.10398 24.4824 1.23725 24.4218C2.78075 23.7218 5.2675 22.8801 7.67725 22.6368C10.143 22.3883 12.2098 22.7891 13.3175 24.1716C13.3995 24.2738 13.5034 24.3563 13.6215 24.4129C13.7396 24.4696 13.869 24.499 14 24.499C14.131 24.499 14.2604 24.4696 14.3785 24.4129C14.4966 24.3563 14.6005 24.2738 14.6825 24.1716C15.7903 22.7891 17.857 22.3883 20.321 22.6368C22.7325 22.8801 25.221 23.7218 26.7628 24.4218C26.896 24.4824 27.0424 24.5086 27.1884 24.498C27.3344 24.4874 27.4754 24.4404 27.5985 24.3611C27.7216 24.2819 27.8229 24.1731 27.893 24.0445C27.9632 23.916 28 23.772 28 23.6256V4.37558C28 4.20765 27.9516 4.04328 27.8607 3.90209C27.7697 3.7609 27.6401 3.64886 27.4872 3.57933C25.8212 2.82158 23.1473 1.91333 20.4978 1.64558C18.2227 1.41633 15.7238 1.63858 14 3.12083Z" fill="#490374"/>
</svg>
