<svg width="52" height="52" viewBox="0 0 52 52" fill="none" xmlns="http://www.w3.org/2000/svg">
<path d="M20.8188 9.29127C23.0988 9.29127 24.9471 7.41116 24.9471 5.09192C24.9471 2.77269 23.0988 0.892578 20.8188 0.892578C18.5387 0.892578 16.6904 2.77269 16.6904 5.09192C16.6904 7.41116 18.5387 9.29127 20.8188 9.29127Z" fill="white"/>
<path d="M12.3852 10.186C14.1801 10.186 15.6352 8.70587 15.6352 6.88009C15.6352 5.05431 14.1801 3.57422 12.3852 3.57422C10.5903 3.57422 9.13525 5.05431 9.13525 6.88009C9.13525 8.70587 10.5903 10.186 12.3852 10.186Z" fill="white"/>
<path d="M20.6408 12.6874C21.3685 12.6874 21.9583 12.0876 21.9583 11.3476C21.9583 10.6077 21.3685 10.0078 20.6408 10.0078C19.9131 10.0078 19.3232 10.6077 19.3232 11.3476C19.3232 12.0876 19.9131 12.6874 20.6408 12.6874Z" fill="white"/>
<path d="M16.7777 14.2944C17.7964 14.2944 18.6223 13.4546 18.6223 12.4187C18.6223 11.3828 17.7964 10.543 16.7777 10.543C15.7589 10.543 14.9331 11.3828 14.9331 12.4187C14.9331 13.4546 15.7589 14.2944 16.7777 14.2944Z" fill="white"/>
<path d="M6.14926 14.1167C7.60459 14.1167 8.78437 12.9166 8.78437 11.4363C8.78437 9.95593 7.60459 8.75586 6.14926 8.75586C4.69394 8.75586 3.51416 9.95593 3.51416 11.4363C3.51416 12.9166 4.69394 14.1167 6.14926 14.1167Z" fill="white"/>
<path d="M11.5069 18.4049C12.8167 18.4049 13.8785 17.3248 13.8785 15.9925C13.8785 14.6601 12.8167 13.5801 11.5069 13.5801C10.1971 13.5801 9.13525 14.6601 9.13525 15.9925C9.13525 17.3248 10.1971 18.4049 11.5069 18.4049Z" fill="white"/>
<path d="M2.54732 18.5836C3.46903 18.5836 4.21622 17.8238 4.21622 16.8865C4.21622 15.9493 3.46903 15.1895 2.54732 15.1895C1.62561 15.1895 0.878418 15.9493 0.878418 16.8865C0.878418 17.8238 1.62561 18.5836 2.54732 18.5836Z" fill="white"/>
<path d="M6.85196 25.3744C8.69538 25.3744 10.1898 23.8543 10.1898 21.9792C10.1898 20.1041 8.69538 18.584 6.85196 18.584C5.00855 18.584 3.51416 20.1041 3.51416 21.9792C3.51416 23.8543 5.00855 25.3744 6.85196 25.3744Z" fill="white"/>
<path d="M4.91951 34.845C7.05399 34.845 8.78433 33.0849 8.78433 30.9137C8.78433 28.7425 7.05399 26.9824 4.91951 26.9824C2.78503 26.9824 1.05469 28.7425 1.05469 30.9137C1.05469 33.0849 2.78503 34.845 4.91951 34.845Z" fill="white"/>
<path d="M1.22972 21.9775C1.90887 21.9775 2.45943 21.4177 2.45943 20.727C2.45943 20.0364 1.90887 19.4766 1.22972 19.4766C0.550563 19.4766 0 20.0364 0 20.727C0 21.4177 0.550563 21.9775 1.22972 21.9775Z" fill="white"/>
<path d="M6.76413 42.8871C8.55903 42.8871 10.0141 41.407 10.0141 39.5813C10.0141 37.7555 8.55903 36.2754 6.76413 36.2754C4.96922 36.2754 3.51416 37.7555 3.51416 39.5813C3.51416 41.407 4.96922 42.8871 6.76413 42.8871Z" fill="white"/>
<path d="M11.4188 48.4253C12.8741 48.4253 14.0539 47.2252 14.0539 45.7449C14.0539 44.2645 12.8741 43.0645 11.4188 43.0645C9.96347 43.0645 8.78369 44.2645 8.78369 45.7449C8.78369 47.2252 9.96347 48.4253 11.4188 48.4253Z" fill="white"/>
<path d="M11.508 32.5214C12.2356 32.5214 12.8255 31.9215 12.8255 31.1816C12.8255 30.4416 12.2356 29.8418 11.508 29.8418C10.7803 29.8418 10.1904 30.4416 10.1904 31.1816C10.1904 31.9215 10.7803 32.5214 11.508 32.5214Z" fill="white"/>
<path d="M12.8237 36.8093C13.6969 36.8093 14.4048 36.0895 14.4048 35.2015C14.4048 34.3136 13.6969 33.5938 12.8237 33.5938C11.9505 33.5938 11.2427 34.3136 11.2427 35.2015C11.2427 36.0895 11.9505 36.8093 12.8237 36.8093Z" fill="white"/>
<path d="M15.9867 42.8862C17.442 42.8862 18.6218 41.6862 18.6218 40.2058C18.6218 38.7255 17.442 37.5254 15.9867 37.5254C14.5313 37.5254 13.3516 38.7255 13.3516 40.2058C13.3516 41.6862 14.5313 42.8862 15.9867 42.8862Z" fill="white"/>
<path d="M22.2235 48.4262C24.1154 48.4262 25.6491 46.8661 25.6491 44.9416C25.6491 43.0171 24.1154 41.457 22.2235 41.457C20.3316 41.457 18.7979 43.0171 18.7979 44.9416C18.7979 46.8661 20.3316 48.4262 22.2235 48.4262Z" fill="white"/>
<path d="M16.6895 51.1062C17.5627 51.1062 18.2705 50.3863 18.2705 49.4984C18.2705 48.6104 17.5627 47.8906 16.6895 47.8906C15.8163 47.8906 15.1084 48.6104 15.1084 49.4984C15.1084 50.3863 15.8163 51.1062 16.6895 51.1062Z" fill="white"/>
<path d="M20.553 51.999C21.2321 51.999 21.7827 51.4392 21.7827 50.7485C21.7827 50.0579 21.2321 49.498 20.553 49.498C19.8738 49.498 19.3232 50.0579 19.3232 50.7485C19.3232 51.4392 19.8738 51.999 20.553 51.999Z" fill="white"/>
<path d="M29.6897 10.5423C31.6302 10.5423 33.2032 8.94225 33.2032 6.96844C33.2032 4.99462 31.6302 3.39453 29.6897 3.39453C27.7493 3.39453 26.1763 4.99462 26.1763 6.96844C26.1763 8.94225 27.7493 10.5423 29.6897 10.5423Z" fill="white"/>
<path d="M31.0953 2.85823C31.8715 2.85823 32.5007 2.2184 32.5007 1.42912C32.5007 0.639837 31.8715 0 31.0953 0C30.3192 0 29.6899 0.639837 29.6899 1.42912C29.6899 2.2184 30.3192 2.85823 31.0953 2.85823Z" fill="white"/>
<path d="M35.2225 4.46628C36.2412 4.46628 37.0671 3.62649 37.0671 2.59056C37.0671 1.55463 36.2412 0.714844 35.2225 0.714844C34.2038 0.714844 33.3779 1.55463 33.3779 2.59056C33.3779 3.62649 34.2038 4.46628 35.2225 4.46628Z" fill="white"/>
<path d="M40.2299 8.57769C41.5882 8.57769 42.6894 7.45762 42.6894 6.07595C42.6894 4.69428 41.5882 3.57422 40.2299 3.57422C38.8716 3.57422 37.7705 4.69428 37.7705 6.07595C37.7705 7.45762 38.8716 8.57769 40.2299 8.57769Z" fill="white"/>
<path d="M44.8841 15.9047C46.7761 15.9047 48.3098 14.3446 48.3098 12.4201C48.3098 10.4956 46.7761 8.93555 44.8841 8.93555C42.9922 8.93555 41.4585 10.4956 41.4585 12.4201C41.4585 14.3446 42.9922 15.9047 44.8841 15.9047Z" fill="white"/>
<path d="M46.8183 25.1956C49.0983 25.1956 50.9466 23.3155 50.9466 20.9962C50.9466 18.677 49.0983 16.7969 46.8183 16.7969C44.5383 16.7969 42.6899 18.677 42.6899 20.9962C42.6899 23.3155 44.5383 25.1956 46.8183 25.1956Z" fill="white"/>
<path d="M35.6629 14.1167C37.1183 14.1167 38.298 12.9166 38.298 11.4363C38.298 9.95593 37.1183 8.75586 35.6629 8.75586C34.2076 8.75586 33.0278 9.95593 33.0278 11.4363C33.0278 12.9166 34.2076 14.1167 35.6629 14.1167Z" fill="white"/>
<path d="M39 18.405C39.8732 18.405 40.5811 17.6852 40.5811 16.7972C40.5811 15.9093 39.8732 15.1895 39 15.1895C38.1268 15.1895 37.4189 15.9093 37.4189 16.7972C37.4189 17.6852 38.1268 18.405 39 18.405Z" fill="white"/>
<path d="M40.2286 22.1571C41.0048 22.1571 41.634 21.5172 41.634 20.728C41.634 19.9387 41.0048 19.2988 40.2286 19.2988C39.4525 19.2988 38.8232 19.9387 38.8232 20.728C38.8232 21.5172 39.4525 22.1571 40.2286 22.1571Z" fill="white"/>
<path d="M44.7967 33.4154C46.7371 33.4154 48.3101 31.8153 48.3101 29.8415C48.3101 27.8677 46.7371 26.2676 44.7967 26.2676C42.8562 26.2676 41.2832 27.8677 41.2832 29.8415C41.2832 31.8153 42.8562 33.4154 44.7967 33.4154Z" fill="white"/>
<path d="M31.0063 51.1077C33.2863 51.1077 35.1346 49.2276 35.1346 46.9083C35.1346 44.5891 33.2863 42.709 31.0063 42.709C28.7262 42.709 26.8779 44.5891 26.8779 46.9083C26.8779 49.2276 28.7262 51.1077 31.0063 51.1077Z" fill="white"/>
<path d="M39.5271 48.7845C41.4676 48.7845 43.0406 47.1844 43.0406 45.2106C43.0406 43.2368 41.4676 41.6367 39.5271 41.6367C37.5867 41.6367 36.0137 43.2368 36.0137 45.2106C36.0137 47.1844 37.5867 48.7845 39.5271 48.7845Z" fill="white"/>
<path d="M45.8509 43.0659C47.3063 43.0659 48.486 41.8659 48.486 40.3855C48.486 38.9051 47.3063 37.7051 45.8509 37.7051C44.3956 37.7051 43.2158 38.9051 43.2158 40.3855C43.2158 41.8659 44.3956 43.0659 45.8509 43.0659Z" fill="white"/>
<path d="M49.1898 37.1665C50.1601 37.1665 50.9466 36.3667 50.9466 35.3801C50.9466 34.3935 50.1601 33.5938 49.1898 33.5938C48.2196 33.5938 47.4331 34.3935 47.4331 35.3801C47.4331 36.3667 48.2196 37.1665 49.1898 37.1665Z" fill="white"/>
<path d="M50.5069 32.699C51.3316 32.699 52.0001 32.0192 52.0001 31.1805C52.0001 30.3419 51.3316 29.6621 50.5069 29.6621C49.6822 29.6621 49.0137 30.3419 49.0137 31.1805C49.0137 32.0192 49.6822 32.699 50.5069 32.699Z" fill="white"/>
<path d="M40.2293 39.1343C41.6847 39.1343 42.8645 37.9342 42.8645 36.4539C42.8645 34.9735 41.6847 33.7734 40.2293 33.7734C38.774 33.7734 37.5942 34.9735 37.5942 36.4539C37.5942 37.9342 38.774 39.1343 40.2293 39.1343Z" fill="white"/>
<path d="M35.3114 41.2779C36.2816 41.2779 37.0682 40.4781 37.0682 39.4915C37.0682 38.5049 36.2816 37.7051 35.3114 37.7051C34.3412 37.7051 33.5547 38.5049 33.5547 39.4915C33.5547 40.4781 34.3412 41.2779 35.3114 41.2779Z" fill="white"/>
<path d="M31.3581 42.1718C32.0857 42.1718 32.6756 41.5719 32.6756 40.832C32.6756 40.092 32.0857 39.4922 31.3581 39.4922C30.6304 39.4922 30.0405 40.092 30.0405 40.832C30.0405 41.5719 30.6304 42.1718 31.3581 42.1718Z" fill="white"/>
</svg>
