<svg width="28" height="28" viewBox="0 0 28 28" fill="none" xmlns="http://www.w3.org/2000/svg">
<path d="M3.5 8.75V24.5H19.25V8.75H3.5ZM2.625 7H20.125C20.3571 7 20.5796 7.09219 20.7437 7.25628C20.9078 7.42038 21 7.64294 21 7.875V25.375C21 25.6071 20.9078 25.8296 20.7437 25.9937C20.5796 26.1578 20.3571 26.25 20.125 26.25H2.625C2.39294 26.25 2.17038 26.1578 2.00628 25.9937C1.84219 25.8296 1.75 25.6071 1.75 25.375V7.875C1.75 7.64294 1.84219 7.42038 2.00628 7.25628C2.17038 7.09219 2.39294 7 2.625 7ZM26.25 2.625V21.875C26.25 22.1071 26.1578 22.3296 25.9937 22.4937C25.8296 22.6578 25.6071 22.75 25.375 22.75H22.75V21H24.5V3.5H10.5V5.25H8.75V2.625C8.75 2.39294 8.84219 2.17038 9.00628 2.00628C9.17038 1.84219 9.39294 1.75 9.625 1.75H25.375C25.6071 1.75 25.8296 1.84219 25.9937 2.00628C26.1578 2.17038 26.25 2.39294 26.25 2.625ZM7 18.375H15.75V20.125H7V18.375ZM7 13.125H15.75V14.875H7V13.125Z" fill="#490374"/>
</svg>
