<svg width="25" height="25" viewBox="0 0 25 25" fill="none" xmlns="http://www.w3.org/2000/svg">
<path d="M16.9584 11.1651C17.0312 11.2376 17.0889 11.3239 17.1283 11.4188C17.1677 11.5137 17.1879 11.6154 17.1879 11.7182C17.1879 11.821 17.1677 11.9227 17.1283 12.0176C17.0889 12.1125 17.0312 12.1987 16.9584 12.2713L12.2709 16.9588C12.1983 17.0316 12.1121 17.0893 12.0172 17.1287C11.9223 17.1681 11.8205 17.1883 11.7178 17.1883C11.615 17.1883 11.5133 17.1681 11.4184 17.1287C11.3234 17.0893 11.2372 17.0316 11.1647 16.9588L8.82091 14.6151C8.74827 14.5424 8.69065 14.4562 8.65134 14.3613C8.61203 14.2664 8.5918 14.1647 8.5918 14.0619C8.5918 13.9592 8.61203 13.8575 8.65134 13.7626C8.69065 13.6677 8.74827 13.5815 8.82091 13.5088C8.96761 13.3621 9.16657 13.2797 9.37403 13.2797C9.47676 13.2797 9.57848 13.2999 9.67338 13.3393C9.76829 13.3786 9.85452 13.4362 9.92716 13.5088L11.7178 15.301L15.8522 11.1651C15.9247 11.0923 16.0109 11.0346 16.1059 10.9952C16.2008 10.9558 16.3025 10.9355 16.4053 10.9355C16.508 10.9355 16.6098 10.9558 16.7047 10.9952C16.7996 11.0346 16.8858 11.0923 16.9584 11.1651Z" fill="#490374"/>
<path d="M5.46875 0C5.67595 0 5.87466 0.08231 6.02118 0.228823C6.16769 0.375336 6.25 0.57405 6.25 0.78125V1.5625H18.75V0.78125C18.75 0.57405 18.8323 0.375336 18.9788 0.228823C19.1253 0.08231 19.324 0 19.5312 0C19.7385 0 19.9372 0.08231 20.0837 0.228823C20.2302 0.375336 20.3125 0.57405 20.3125 0.78125V1.5625H21.875C22.7038 1.5625 23.4987 1.89174 24.0847 2.47779C24.6708 3.06384 25 3.8587 25 4.6875V21.875C25 22.7038 24.6708 23.4987 24.0847 24.0847C23.4987 24.6708 22.7038 25 21.875 25H3.125C2.2962 25 1.50134 24.6708 0.915291 24.0847C0.32924 23.4987 0 22.7038 0 21.875V4.6875C0 3.8587 0.32924 3.06384 0.915291 2.47779C1.50134 1.89174 2.2962 1.5625 3.125 1.5625H4.6875V0.78125C4.6875 0.57405 4.76981 0.375336 4.91632 0.228823C5.06284 0.08231 5.26155 0 5.46875 0V0ZM1.5625 6.25V21.875C1.5625 22.2894 1.72712 22.6868 2.02015 22.9799C2.31317 23.2729 2.7106 23.4375 3.125 23.4375H21.875C22.2894 23.4375 22.6868 23.2729 22.9799 22.9799C23.2729 22.6868 23.4375 22.2894 23.4375 21.875V6.25H1.5625Z" fill="#490374"/>
</svg>
