<svg width="32" height="32" viewBox="0 0 32 32" fill="none" xmlns="http://www.w3.org/2000/svg">
<path d="M29.9998 28.5868L25.3108 23.8988C26.5639 22.2859 27.1552 20.2561 26.9642 18.2226C26.7732 16.1891 25.8143 14.3048 24.2828 12.9535C22.7512 11.6022 20.7622 10.8855 18.7208 10.9492C16.6793 11.013 14.7389 11.8524 13.2947 13.2967C11.8505 14.7409 11.011 16.6813 10.9473 18.7227C10.8835 20.7642 11.6003 22.7532 12.9516 24.2847C14.3029 25.8162 16.1871 26.7751 18.2206 26.9661C20.2541 27.1571 22.284 26.5659 23.8968 25.3128L28.5858 30.0008L29.9998 28.5868ZM18.9998 25.0008C17.8131 25.0008 16.6531 24.6489 15.6664 23.9896C14.6797 23.3303 13.9107 22.3932 13.4565 21.2969C13.0024 20.2005 12.8836 18.9941 13.1151 17.8302C13.3466 16.6663 13.9181 15.5972 14.7572 14.7581C15.5963 13.919 16.6654 13.3476 17.8293 13.1161C18.9932 12.8845 20.1996 13.0034 21.2959 13.4575C22.3923 13.9116 23.3293 14.6807 23.9886 15.6673C24.6479 16.654 24.9998 17.8141 24.9998 19.0008C24.998 20.5915 24.3652 22.1165 23.2404 23.2414C22.1156 24.3662 20.5905 24.9989 18.9998 25.0008Z" fill="#490374"/>
<path d="M2 12H10V14H2V12Z" fill="#490374"/>
<path d="M2 2H18V4H2V2Z" fill="#490374"/>
<path d="M2 7H18V9H2V7Z" fill="#490374"/>
</svg>
