<svg width="40" height="43" viewBox="0 0 40 43" fill="none" xmlns="http://www.w3.org/2000/svg">
<path d="M40 10.6361C39.9219 13.5167 38.9128 16.0095 36.9727 18.1146C35.0326 20.2196 32.7083 21.2722 30 21.2722C29.2448 21.2722 28.4635 21.1614 27.6562 20.9398C27.8646 21.7984 28.3008 22.5116 28.9648 23.0795C29.6289 23.6473 30.3906 23.9312 31.25 23.9312L35 27.9197L38.2031 31.4512C39.401 32.7253 40 34.2556 40 36.0422C40 37.8287 39.401 39.3521 38.2031 40.6124C37.0052 41.8726 35.5664 42.5028 33.8867 42.5028C32.207 42.5028 30.7682 41.8796 29.5703 40.6331L26.25 37.2263L22.5 33.2377C22.5 32.1298 22.1354 31.1881 21.4062 30.4125C20.6771 29.637 19.7917 29.2492 18.75 29.2492L18.4766 28.9584V28.9168L8.82812 42.1704C8.56771 42.4197 7.44141 42.5443 5.44922 42.5443C3.45703 42.5443 2.34375 42.4197 2.10938 42.1704L0.351562 40.3423C0.117188 40.0653 0 38.8674 0 36.7485C0 34.6296 0.117188 33.4316 0.351562 33.1546L16.7578 19.6518L8.32031 10.6361H3.75L0 2.65902L2.5 0L10 3.98853V8.808L18.6719 18.073L21.25 15.9541C21.25 15.9264 21.263 15.9126 21.2891 15.9126H21.3281C20.4427 14.2507 20 12.4919 20 10.6361C20 7.75547 20.9831 5.27649 22.9492 3.19913C24.9154 1.12177 27.2656 0.0553962 30 0V1.57879L26.7969 4.81947C25.599 6.09359 25 7.62391 25 9.41044C25 11.197 25.599 12.7273 26.7969 14.0014C27.9948 15.2755 29.4401 15.9126 31.1328 15.9126C32.8255 15.9126 34.2708 15.2755 35.4688 14.0014L38.4766 10.6361H40ZM5 34.5673C4.29688 34.5673 3.70443 34.8235 3.22266 35.3359C2.74089 35.8483 2.5 36.4715 2.5 37.2055C2.5 37.9395 2.74089 38.5696 3.22266 39.0959C3.70443 39.6222 4.29688 39.8853 5 39.8853C5.70312 39.8853 6.29557 39.6222 6.77734 39.0959C7.25911 38.5696 7.5 37.9395 7.5 37.2055C7.5 36.4715 7.25911 35.8483 6.77734 35.3359C6.29557 34.8235 5.70312 34.5673 5 34.5673Z" fill="#490374"/>
</svg>
