<svg width="28" height="28" viewBox="0 0 28 28" fill="none" xmlns="http://www.w3.org/2000/svg">
<path d="M13.9991 1.55664C11.5379 1.55664 9.13185 2.28649 7.08537 3.65391C5.0389 5.02132 3.44386 6.96488 2.50197 9.2388C1.56008 11.5127 1.31364 14.0149 1.79381 16.4289C2.27398 18.8429 3.4592 21.0603 5.19959 22.8006C6.93997 24.541 9.15736 25.7262 11.5713 26.2064C13.9853 26.6866 16.4875 26.4401 18.7614 25.4983C21.0353 24.5564 22.9789 22.9613 24.3463 20.9149C25.7137 18.8684 26.4436 16.4624 26.4436 14.0011C26.4436 10.7006 25.1325 7.53532 22.7987 5.20153C20.4649 2.86775 17.2996 1.55664 13.9991 1.55664ZM13.9991 24.89C11.8455 24.89 9.74026 24.2514 7.94959 23.0549C6.15893 21.8584 4.76327 20.1578 3.93912 18.1681C3.11496 16.1784 2.89933 13.989 3.31948 11.8768C3.73963 9.76453 4.77669 7.82432 6.29953 6.30148C7.82237 4.77864 9.76258 3.74157 11.8748 3.32142C13.9871 2.90127 16.1765 3.11691 18.1661 3.94106C20.1558 4.76522 21.8564 6.16087 23.0529 7.95154C24.2494 9.74221 24.888 11.8475 24.888 14.0011C24.888 16.889 23.7408 19.6586 21.6987 21.7007C19.6567 23.7428 16.8871 24.89 13.9991 24.89Z" fill="#490374"/>
<path d="M13.9996 5.59961C12.3383 5.59961 10.7142 6.09226 9.33282 7.01526C7.95145 7.93827 6.8748 9.25017 6.23903 10.7851C5.60325 12.32 5.4369 14.0089 5.76102 15.6384C6.08513 17.2678 6.88516 18.7645 8.05992 19.9393C9.23468 21.1141 10.7314 21.9141 12.3609 22.2382C13.9903 22.5623 15.6793 22.396 17.2142 21.7602C18.7491 21.1244 20.061 20.0478 20.984 18.6664C21.907 17.285 22.3996 15.661 22.3996 13.9996C22.3976 11.7724 21.5119 9.63705 19.937 8.06219C18.3622 6.48733 16.2268 5.60167 13.9996 5.59961ZM13.9996 21.1552C12.5844 21.1552 11.2009 20.7355 10.0242 19.9492C8.84747 19.163 7.93033 18.0454 7.38874 16.7379C6.84715 15.4304 6.70545 13.9917 6.98155 12.6036C7.25765 11.2156 7.93915 9.94059 8.93987 8.93987C9.94059 7.93915 11.2156 7.25764 12.6036 6.98155C13.9917 6.70545 15.4304 6.84715 16.7379 7.38874C18.0454 7.93033 19.163 8.84747 19.9492 10.0242C20.7355 11.2009 21.1552 12.5844 21.1552 13.9996C21.1531 15.8967 20.3986 17.7156 19.0571 19.0571C17.7156 20.3986 15.8968 21.1531 13.9996 21.1552Z" fill="#490374"/>
<path d="M13.9998 9.57422C13.1245 9.57422 12.2688 9.83377 11.5411 10.3201C10.8133 10.8063 10.2461 11.4975 9.9111 12.3062C9.57614 13.1148 9.4885 14.0047 9.65926 14.8631C9.83002 15.7216 10.2515 16.5102 10.8704 17.1291C11.4894 17.748 12.2779 18.1695 13.1364 18.3403C13.9949 18.511 14.8847 18.4234 15.6934 18.0884C16.502 17.7535 17.1932 17.1862 17.6795 16.4585C18.1658 15.7307 18.4253 14.8751 18.4253 13.9998C18.4253 12.826 17.9591 11.7004 17.1291 10.8704C16.2992 10.0405 15.1735 9.57422 13.9998 9.57422ZM13.9998 17.1731C13.3703 17.1731 12.7549 16.9863 12.2316 16.6364C11.7083 16.2866 11.3006 15.7893 11.0601 15.2075C10.8195 14.6258 10.757 13.9858 10.8804 13.3685C11.0037 12.7512 11.3075 12.1844 11.7532 11.7399C12.1988 11.2953 12.7664 10.9929 13.384 10.8711C14.0015 10.7492 14.6414 10.8133 15.2225 11.0553C15.8037 11.2972 16.2999 11.7062 16.6486 12.2303C16.9972 12.7545 17.1824 13.3703 17.1809 13.9998C17.1809 14.8435 16.8457 15.6526 16.2492 16.2492C15.6526 16.8457 14.8435 17.1809 13.9998 17.1809V17.1731Z" fill="#490374"/>
</svg>
