<svg width="33" height="28" viewBox="0 0 33 28" fill="none" xmlns="http://www.w3.org/2000/svg">
<path d="M30.4371 28H2.02914C1.47958 28 1.004 27.8314 0.602401 27.4941C0.2008 27.1569 0 26.7422 0 26.25C0 25.7578 0.2008 25.3431 0.602401 25.0059C1.004 24.6686 1.47958 24.5 2.02914 24.5H30.4371C30.9867 24.5 31.4623 24.6686 31.8639 25.0059C32.2655 25.3431 32.4663 25.7533 32.4663 26.2363C32.4663 26.7194 32.2655 27.1341 31.8639 27.4805C31.4623 27.8268 30.9867 28 30.4371 28ZM29.4225 22.75H2.02914L7.60928 13.7266C7.71496 13.5625 7.88406 13.4486 8.11656 13.3848C8.34907 13.321 8.57101 13.3255 8.78238 13.3984V13.3711C8.69783 13.3164 8.66612 13.2891 8.68726 13.2891C8.72953 13.2891 8.82465 13.3438 8.97261 13.4531C9.1417 13.5625 9.25796 13.6992 9.32137 13.8633L10.4311 14.8203L16.2965 7.62891C16.3388 7.46484 16.4128 7.33724 16.5185 7.24609C16.7087 7.08203 16.9518 7 17.2477 7C17.5225 7 17.7656 7.08203 17.9769 7.24609C17.9769 7.26432 17.9875 7.28711 18.0086 7.31445L18.0403 7.35547L20.8621 9.32422L28.4714 0.601562C28.6405 0.200521 28.9575 0 29.4225 0H29.4543C29.729 0 29.9615 0.0820312 30.1518 0.246094C30.342 0.410156 30.4371 0.610677 30.4371 0.847656V21.875C30.4371 22.112 30.3367 22.3171 30.1359 22.4902C29.9351 22.6634 29.6973 22.75 29.4225 22.75Z" fill="#034F7A"/>
</svg>
